{
  "accessors": [
    {
      "name": "Box9845_1_0_positions",
      "componentType": 5126,
      "count": 20,
      "min": [
        -18721.263671875,
        -0.02199999988079071,
        12123.748046875
      ],
      "max": [
        -18629.2109375,
        3693.442138671875,
        12321.9228515625
      ],
      "type": "VEC3",
      "bufferView": 0,
      "byteOffset": 0
    },
    {
      "name": "Box9845_1_0_normals",
      "componentType": 5126,
      "count": 20,
      "min": [
        -0.5773835778236389,
        -0.5773835778236389,
        -0.5773835778236389
      ],
      "max": [
        0.5774169564247131,
        0.5773835778236389,
        0.5774169564247131
      ],
      "type": "VEC3",
      "bufferView": 1,
      "byteOffset": 0
    },
    {
      "name": "Box9845_1_0_texcoords",
      "componentType": 5126,
      "count": 20,
      "min": [
        0,
        0
      ],
      "max": [
        1,
        1
      ],
      "type": "VEC2",
      "bufferView": 2,
      "byteOffset": 0
    },
    {
      "name": "Box9845_1_0_indices",
      "componentType": 5123,
      "count": 36,
      "min": [
        0
      ],
      "max": [
        19
      ],
      "type": "SCALAR",
      "bufferView": 3,
      "byteOffset": 0
    },
    {
      "name": "Box9887_1_0_positions",
      "componentType": 5126,
      "count": 20,
      "min": [
        -18721.263671875,
        -0.02199999988079071,
        7044.05908203125
      ],
      "max": [
        -18629.2109375,
        3693.389404296875,
        7242.23486328125
      ],
      "type": "VEC3",
      "bufferView": 0,
      "byteOffset": 240
    },
    {
      "name": "Box9887_1_0_normals",
      "componentType": 5126,
      "count": 20,
      "min": [
        -0.5773835778236389,
        -0.5773835778236389,
        -0.5773835778236389
      ],
      "max": [
        0.5774169564247131,
        0.5773835778236389,
        0.5774169564247131
      ],
      "type": "VEC3",
      "bufferView": 1,
      "byteOffset": 240
    },
    {
      "name": "Box9887_1_0_texcoords",
      "componentType": 5126,
      "count": 20,
      "min": [
        0,
        0
      ],
      "max": [
        1,
        1
      ],
      "type": "VEC2",
      "bufferView": 2,
      "byteOffset": 160
    },
    {
      "name": "Box9887_1_0_indices",
      "componentType": 5123,
      "count": 36,
      "min": [
        0
      ],
      "max": [
        19
      ],
      "type": "SCALAR",
      "bufferView": 3,
      "byteOffset": 72
    },
    {
      "name": "Box9888_1_0_positions",
      "componentType": 5126,
      "count": 20,
      "min": [
        -19259.796875,
        1040.8814697265625,
        12215.02734375
      ],
      "max": [
        -18715.91796875,
        1088.6414794921875,
        12233.71875
      ],
      "type": "VEC3",
      "bufferView": 0,
      "byteOffset": 480
    },
    {
      "name": "Box9888_1_0_normals",
      "componentType": 5126,
      "count": 20,
      "min": [
        -0.5773502588272095,
        -0.5773835778236389,
        -0.5773502588272095
      ],
      "max": [
        0.5773835778236389,
        0.5773502588272095,
        0.5773502588272095
      ],
      "type": "VEC3",
      "bufferView": 1,
      "byteOffset": 480
    },
    {
      "name": "Box9888_1_0_texcoords",
      "componentType": 5126,
      "count": 20,
      "min": [
        0,
        0
      ],
      "max": [
        1,
        1
      ],
      "type": "VEC2",
      "bufferView": 2,
      "byteOffset": 320
    },
    {
      "name": "Box9888_1_0_indices",
      "componentType": 5123,
      "count": 36,
      "min": [
        0
      ],
      "max": [
        19
      ],
      "type": "SCALAR",
      "bufferView": 3,
      "byteOffset": 144
    },
    {
      "name": "Box9889_1_0_positions",
      "componentType": 5126,
      "count": 20,
      "min": [
        -19259.796875,
        1957.0108642578125,
        12215.02734375
      ],
      "max": [
        -18722.474609375,
        2004.7708740234375,
        12233.71875
      ],
      "type": "VEC3",
      "bufferView": 0,
      "byteOffset": 720
    },
    {
      "name": "Box9889_1_0_normals",
      "componentType": 5126,
      "count": 20,
      "min": [
        -0.5773502588272095,
        -0.5773835778236389,
        -0.5773502588272095
      ],
      "max": [
        0.5773835778236389,
        0.5773502588272095,
        0.5773502588272095
      ],
      "type": "VEC3",
      "bufferView": 1,
      "byteOffset": 720
    },
    {
      "name": "Box9889_1_0_texcoords",
      "componentType": 5126,
      "count": 20,
      "min": [
        0,
        0
      ],
      "max": [
        1,
        1
      ],
      "type": "VEC2",
      "bufferView": 2,
      "byteOffset": 480
    },
    {
      "name": "Box9889_1_0_indices",
      "componentType": 5123,
      "count": 36,
      "min": [
        0
      ],
      "max": [
        19
      ],
      "type": "SCALAR",
      "bufferView": 3,
      "byteOffset": 216
    },
    {
      "name": "Box9890_1_0_positions",
      "componentType": 5126,
      "count": 20,
      "min": [
        -19259.796875,
        2873.14013671875,
        12215.02734375
      ],
      "max": [
        -18720.251953125,
        2920.900146484375,
        12233.71875
      ],
      "type": "VEC3",
      "bufferView": 0,
      "byteOffset": 960
    },
    {
      "name": "Box9890_1_0_normals",
      "componentType": 5126,
      "count": 20,
      "min": [
        -0.5773502588272095,
        -0.5773835778236389,
        -0.5773502588272095
      ],
      "max": [
        0.5773835778236389,
        0.5773502588272095,
        0.5773502588272095
      ],
      "type": "VEC3",
      "bufferView": 1,
      "byteOffset": 960
    },
    {
      "name": "Box9890_1_0_texcoords",
      "componentType": 5126,
      "count": 20,
      "min": [
        0,
        0
      ],
      "max": [
        1,
        1
      ],
      "type": "VEC2",
      "bufferView": 2,
      "byteOffset": 640
    },
    {
      "name": "Box9890_1_0_indices",
      "componentType": 5123,
      "count": 36,
      "min": [
        0
      ],
      "max": [
        19
      ],
      "type": "SCALAR",
      "bufferView": 3,
      "byteOffset": 288
    },
    {
      "name": "Box9891_1_0_positions",
      "componentType": 5126,
      "count": 20,
      "min": [
        -19259.796875,
        1040.8814697265625,
        7136.49853515625
      ],
      "max": [
        -18719.228515625,
        1088.6414794921875,
        7155.18994140625
      ],
      "type": "VEC3",
      "bufferView": 0,
      "byteOffset": 1200
    },
    {
      "name": "Box9891_1_0_normals",
      "componentType": 5126,
      "count": 20,
      "min": [
        -0.5773502588272095,
        -0.5773835778236389,
        -0.5773502588272095
      ],
      "max": [
        0.5773835778236389,
        0.5773502588272095,
        0.5773502588272095
      ],
      "type": "VEC3",
      "bufferView": 1,
      "byteOffset": 1200
    },
    {
      "name": "Box9891_1_0_texcoords",
      "componentType": 5126,
      "count": 20,
      "min": [
        0,
        0
      ],
      "max": [
        1,
        1
      ],
      "type": "VEC2",
      "bufferView": 2,
      "byteOffset": 800
    },
    {
      "name": "Box9891_1_0_indices",
      "componentType": 5123,
      "count": 36,
      "min": [
        0
      ],
      "max": [
        19
      ],
      "type": "SCALAR",
      "bufferView": 3,
      "byteOffset": 360
    },
    {
      "name": "Box9892_1_0_positions",
      "componentType": 5126,
      "count": 20,
      "min": [
        -19259.796875,
        1957.0108642578125,
        7136.49853515625
      ],
      "max": [
        -18722.474609375,
        2004.7708740234375,
        7155.18994140625
      ],
      "type": "VEC3",
      "bufferView": 0,
      "byteOffset": 1440
    },
    {
      "name": "Box9892_1_0_normals",
      "componentType": 5126,
      "count": 20,
      "min": [
        -0.5773502588272095,
        -0.5773835778236389,
        -0.5773502588272095
      ],
      "max": [
        0.5773835778236389,
        0.5773502588272095,
        0.5773502588272095
      ],
      "type": "VEC3",
      "bufferView": 1,
      "byteOffset": 1440
    },
    {
      "name": "Box9892_1_0_texcoords",
      "componentType": 5126,
      "count": 20,
      "min": [
        0,
        0
      ],
      "max": [
        1,
        1
      ],
      "type": "VEC2",
      "bufferView": 2,
      "byteOffset": 960
    },
    {
      "name": "Box9892_1_0_indices",
      "componentType": 5123,
      "count": 36,
      "min": [
        0
      ],
      "max": [
        19
      ],
      "type": "SCALAR",
      "bufferView": 3,
      "byteOffset": 432
    },
    {
      "name": "Box9893_1_0_positions",
      "componentType": 5126,
      "count": 20,
      "min": [
        -19259.796875,
        2873.14013671875,
        7146.48974609375
      ],
      "max": [
        -18720.525390625,
        2920.900146484375,
        7165.18115234375
      ],
      "type": "VEC3",
      "bufferView": 0,
      "byteOffset": 1680
    },
    {
      "name": "Box9893_1_0_normals",
      "componentType": 5126,
      "count": 20,
      "min": [
        -0.5773502588272095,
        -0.5773835778236389,
        -0.5773502588272095
      ],
      "max": [
        0.5773835778236389,
        0.5773502588272095,
        0.5773502588272095
      ],
      "type": "VEC3",
      "bufferView": 1,
      "byteOffset": 1680
    },
    {
      "name": "Box9893_1_0_texcoords",
      "componentType": 5126,
      "count": 20,
      "min": [
        0,
        0
      ],
      "max": [
        1,
        1
      ],
      "type": "VEC2",
      "bufferView": 2,
      "byteOffset": 1120
    },
    {
      "name": "Box9893_1_0_indices",
      "componentType": 5123,
      "count": 36,
      "min": [
        0
      ],
      "max": [
        19
      ],
      "type": "SCALAR",
      "bufferView": 3,
      "byteOffset": 504
    },
    {
      "name": "Box9916_1_0_positions",
      "componentType": 5126,
      "count": 20,
      "min": [
        -19353.541015625,
        -0.02199999988079071,
        12123.748046875
      ],
      "max": [
        -19261.48828125,
        3693.442138671875,
        12321.9228515625
      ],
      "type": "VEC3",
      "bufferView": 0,
      "byteOffset": 1920
    },
    {
      "name": "Box9916_1_0_normals",
      "componentType": 5126,
      "count": 20,
      "min": [
        -0.5773835778236389,
        -0.5773835778236389,
        -0.5773835778236389
      ],
      "max": [
        0.5774169564247131,
        0.5773835778236389,
        0.5774169564247131
      ],
      "type": "VEC3",
      "bufferView": 1,
      "byteOffset": 1920
    },
    {
      "name": "Box9916_1_0_texcoords",
      "componentType": 5126,
      "count": 20,
      "min": [
        0,
        0
      ],
      "max": [
        1,
        1
      ],
      "type": "VEC2",
      "bufferView": 2,
      "byteOffset": 1280
    },
    {
      "name": "Box9916_1_0_indices",
      "componentType": 5123,
      "count": 36,
      "min": [
        0
      ],
      "max": [
        19
      ],
      "type": "SCALAR",
      "bufferView": 3,
      "byteOffset": 576
    },
    {
      "name": "Box9917_1_0_positions",
      "componentType": 5126,
      "count": 20,
      "min": [
        -19353.541015625,
        -0.02199999988079071,
        7044.05908203125
      ],
      "max": [
        -19261.48828125,
        3693.389404296875,
        7242.23486328125
      ],
      "type": "VEC3",
      "bufferView": 0,
      "byteOffset": 2160
    },
    {
      "name": "Box9917_1_0_normals",
      "componentType": 5126,
      "count": 20,
      "min": [
        -0.5773835778236389,
        -0.5773835778236389,
        -0.5773835778236389
      ],
      "max": [
        0.5774169564247131,
        0.5773835778236389,
        0.5774169564247131
      ],
      "type": "VEC3",
      "bufferView": 1,
      "byteOffset": 2160
    },
    {
      "name": "Box9917_1_0_texcoords",
      "componentType": 5126,
      "count": 20,
      "min": [
        0,
        0
      ],
      "max": [
        1,
        1
      ],
      "type": "VEC2",
      "bufferView": 2,
      "byteOffset": 1440
    },
    {
      "name": "Box9917_1_0_indices",
      "componentType": 5123,
      "count": 36,
      "min": [
        0
      ],
      "max": [
        19
      ],
      "type": "SCALAR",
      "bufferView": 3,
      "byteOffset": 648
    },
    {
      "name": "Cylinder285_1_0_positions",
      "componentType": 5126,
      "count": 98,
      "min": [
        -18708.75,
        3604.830810546875,
        7204.1630859375
      ],
      "max": [
        -18641.9921875,
        3671.400390625,
        12236.767578125
      ],
      "type": "VEC3",
      "bufferView": 0,
      "byteOffset": 2400
    },
    {
      "name": "Cylinder285_1_0_normals",
      "componentType": 5126,
      "count": 98,
      "min": [
        -0.9999992847442627,
        -0.9848145246505737,
        -0.002600058913230896
      ],
      "max": [
        0.9999992847442627,
        0.9848147630691528,
        0.6713877320289612
      ],
      "type": "VEC3",
      "bufferView": 1,
      "byteOffset": 2400
    },
    {
      "name": "Cylinder285_1_0_texcoords",
      "componentType": 5126,
      "count": 98,
      "min": [
        -0.027799999341368675,
        0.20000000298023224
      ],
      "max": [
        0.9721999764442444,
        1
      ],
      "type": "VEC2",
      "bufferView": 2,
      "byteOffset": 1600
    },
    {
      "name": "Cylinder285_1_0_indices",
      "componentType": 5123,
      "count": 480,
      "min": [
        0
      ],
      "max": [
        97
      ],
      "type": "SCALAR",
      "bufferView": 3,
      "byteOffset": 720
    },
    {
      "name": "Cylinder286_1_0_positions",
      "componentType": 5126,
      "count": 98,
      "min": [
        -19341.02734375,
        3604.830810546875,
        7204.1630859375
      ],
      "max": [
        -19274.26953125,
        3671.400390625,
        12236.767578125
      ],
      "type": "VEC3",
      "bufferView": 0,
      "byteOffset": 3576
    },
    {
      "name": "Cylinder286_1_0_normals",
      "componentType": 5126,
      "count": 98,
      "min": [
        -0.9999992847442627,
        -0.9848145246505737,
        -0.002600058913230896
      ],
      "max": [
        0.9999992847442627,
        0.9848147630691528,
        0.6713877320289612
      ],
      "type": "VEC3",
      "bufferView": 1,
      "byteOffset": 3576
    },
    {
      "name": "Cylinder286_1_0_texcoords",
      "componentType": 5126,
      "count": 98,
      "min": [
        -0.027799999341368675,
        0.20000000298023224
      ],
      "max": [
        0.9721999764442444,
        1
      ],
      "type": "VEC2",
      "bufferView": 2,
      "byteOffset": 2384
    },
    {
      "name": "Cylinder286_1_0_indices",
      "componentType": 5123,
      "count": 480,
      "min": [
        0
      ],
      "max": [
        97
      ],
      "type": "SCALAR",
      "bufferView": 3,
      "byteOffset": 1680
    }
  ],
  "asset": {
    "generator": "obj2gltf",
    "version": "2.0"
  },
  "buffers": [
    {
      "name": "12",
      "byteLength": 18608,
      "uri": "data:application/octet-stream;base64,"
    }
  ],
  "bufferViews": [
    {
      "name": "bufferView_0",
      "buffer": 0,
      "byteLength": 4752,
      "byteOffset": 0,
      "byteStride": 12,
      "target": 34962
    },
    {
      "name": "bufferView_1",
      "buffer": 0,
      "byteLength": 4752,
      "byteOffset": 4752,
      "byteStride": 12,
      "target": 34962
    },
    {
      "name": "bufferView_2",
      "buffer": 0,
      "byteLength": 3168,
      "byteOffset": 9504,
      "byteStride": 8,
      "target": 34962
    },
    {
      "name": "bufferView_3",
      "buffer": 0,
      "byteLength": 2640,
      "byteOffset": 12672,
      "target": 34963
    },
    {
      "buffer": 0,
      "byteOffset": 15312,
      "byteLength": 3293
    }
  ],
  "images": [
    {
      "name": "chengse",
      "mimeType": "image/png",
      "bufferView": 4
    }
  ],
  "materials": [
    {
      "name": "11___Default",
      "pbrMetallicRoughness": {
        "baseColorTexture": {
          "index": 0
        },
        "baseColorFactor": [
          1,
          1,
          1,
          1
        ],
        "metallicFactor": 0,
        "roughnessFactor": 0.99
      },
      "emissiveFactor": [
        0,
        0,
        0
      ],
      "alphaMode": "OPAQUE",
      "doubleSided": false
    }
  ],
  "meshes": [
    {
      "name": "Box9845_1",
      "primitives": [
        {
          "attributes": {
            "POSITION": 0,
            "NORMAL": 1,
            "TEXCOORD_0": 2
          },
          "indices": 3,
          "material": 0,
          "mode": 4
        }
      ]
    },
    {
      "name": "Box9887_1",
      "primitives": [
        {
          "attributes": {
            "POSITION": 4,
            "NORMAL": 5,
            "TEXCOORD_0": 6
          },
          "indices": 7,
          "material": 0,
          "mode": 4
        }
      ]
    },
    {
      "name": "Box9888_1",
      "primitives": [
        {
          "attributes": {
            "POSITION": 8,
            "NORMAL": 9,
            "TEXCOORD_0": 10
          },
          "indices": 11,
          "material": 0,
          "mode": 4
        }
      ]
    },
    {
      "name": "Box9889_1",
      "primitives": [
        {
          "attributes": {
            "POSITION": 12,
            "NORMAL": 13,
            "TEXCOORD_0": 14
          },
          "indices": 15,
          "material": 0,
          "mode": 4
        }
      ]
    },
    {
      "name": "Box9890_1",
      "primitives": [
        {
          "attributes": {
            "POSITION": 16,
            "NORMAL": 17,
            "TEXCOORD_0": 18
          },
          "indices": 19,
          "material": 0,
          "mode": 4
        }
      ]
    },
    {
      "name": "Box9891_1",
      "primitives": [
        {
          "attributes": {
            "POSITION": 20,
            "NORMAL": 21,
            "TEXCOORD_0": 22
          },
          "indices": 23,
          "material": 0,
          "mode": 4
        }
      ]
    },
    {
      "name": "Box9892_1",
      "primitives": [
        {
          "attributes": {
            "POSITION": 24,
            "NORMAL": 25,
            "TEXCOORD_0": 26
          },
          "indices": 27,
          "material": 0,
          "mode": 4
        }
      ]
    },
    {
      "name": "Box9893_1",
      "primitives": [
        {
          "attributes": {
            "POSITION": 28,
            "NORMAL": 29,
            "TEXCOORD_0": 30
          },
          "indices": 31,
          "material": 0,
          "mode": 4
        }
      ]
    },
    {
      "name": "Box9916_1",
      "primitives": [
        {
          "attributes": {
            "POSITION": 32,
            "NORMAL": 33,
            "TEXCOORD_0": 34
          },
          "indices": 35,
          "material": 0,
          "mode": 4
        }
      ]
    },
    {
      "name": "Box9917_1",
      "primitives": [
        {
          "attributes": {
            "POSITION": 36,
            "NORMAL": 37,
            "TEXCOORD_0": 38
          },
          "indices": 39,
          "material": 0,
          "mode": 4
        }
      ]
    },
    {
      "name": "Cylinder285_1",
      "primitives": [
        {
          "attributes": {
            "POSITION": 40,
            "NORMAL": 41,
            "TEXCOORD_0": 42
          },
          "indices": 43,
          "material": 0,
          "mode": 4
        }
      ]
    },
    {
      "name": "Cylinder286_1",
      "primitives": [
        {
          "attributes": {
            "POSITION": 44,
            "NORMAL": 45,
            "TEXCOORD_0": 46
          },
          "indices": 47,
          "material": 0,
          "mode": 4
        }
      ]
    }
  ],
  "nodes": [
    {
      "name": "Box9845",
      "mesh": 0
    },
    {
      "name": "Box9887",
      "mesh": 1
    },
    {
      "name": "Box9888",
      "mesh": 2
    },
    {
      "name": "Box9889",
      "mesh": 3
    },
    {
      "name": "Box9890",
      "mesh": 4
    },
    {
      "name": "Box9891",
      "mesh": 5
    },
    {
      "name": "Box9892",
      "mesh": 6
    },
    {
      "name": "Box9893",
      "mesh": 7
    },
    {
      "name": "Box9916",
      "mesh": 8
    },
    {
      "name": "Box9917",
      "mesh": 9
    },
    {
      "name": "Cylinder285",
      "mesh": 10
    },
    {
      "name": "Cylinder286",
      "mesh": 11
    }
  ],
  "samplers": [
    {
      "magFilter": 9729,
      "minFilter": 9986,
      "wrapS": 10497,
      "wrapT": 10497
    }
  ],
  "scene": 0,
  "scenes": [
    {
      "nodes": [
        0,
        1,
        2,
        3,
        4,
        5,
        6,
        7,
        8,
        9,
        10,
        11
      ]
    }
  ],
  "textures": [
    {
      "name": "chengse",
      "sampler": 0,
      "source": 0
    }
  ]
}
