{
  "accessors": [
    {
      "name": "Box1705_1_0_positions",
      "componentType": 5126,
      "count": 20,
      "min": [
        -190.4102020263672,
        -190.41029357910156,
        0
      ],
      "max": [
        190.4102020263672,
        190.4102020263672,
        634.7008056640625
      ],
      "type": "VEC3",
      "bufferView": 0,
      "byteOffset": 0
    },
    {
      "name": "Box1705_1_0_normals",
      "componentType": 5126,
      "count": 20,
      "min": [
        -0.5773502588272095,
        -0.5773502588272095,
        -0.5773502588272095
      ],
      "max": [
        0.5773502588272095,
        0.5773502588272095,
        0.5773502588272095
      ],
      "type": "VEC3",
      "bufferView": 1,
      "byteOffset": 0
    },
    {
      "name": "Box1705_1_0_texcoords",
      "componentType": 5126,
      "count": 20,
      "min": [
        0,
        0
      ],
      "max": [
        1,
        1
      ],
      "type": "VEC2",
      "bufferView": 2,
      "byteOffset": 0
    },
    {
      "name": "Box1705_1_0_indices",
      "componentType": 5123,
      "count": 36,
      "min": [
        0
      ],
      "max": [
        19
      ],
      "type": "SCALAR",
      "bufferView": 3,
      "byteOffset": 0
    },
    {
      "name": "98AB7B134DDB347F6AF62C82F826C06F82B69A62___942B6212A8479E12AF1D9C710B7BFF818E1BB209_1_0_positions",
      "componentType": 5126,
      "count": 4,
      "min": [
        111.7583999633789,
        -130.39450073242188,
        -705.9075927734375
      ],
      "max": [
        114.7583999633789,
        -124.39450073242188,
        -705.9075927734375
      ],
      "type": "VEC3",
      "bufferView": 0,
      "byteOffset": 240
    },
    {
      "name": "98AB7B134DDB347F6AF62C82F826C06F82B69A62___942B6212A8479E12AF1D9C710B7BFF818E1BB209_1_0_normals",
      "componentType": 5126,
      "count": 4,
      "min": [
        0,
        0,
        -1
      ],
      "max": [
        0,
        0,
        -1
      ],
      "type": "VEC3",
      "bufferView": 1,
      "byteOffset": 240
    },
    {
      "name": "98AB7B134DDB347F6AF62C82F826C06F82B69A62___942B6212A8479E12AF1D9C710B7BFF818E1BB209_1_0_indices",
      "componentType": 5123,
      "count": 6,
      "min": [
        0
      ],
      "max": [
        3
      ],
      "type": "SCALAR",
      "bufferView": 3,
      "byteOffset": 72
    },
    {
      "name": "98AB7B134DDB347F6AF62C82F826C06F82B69A62___0DDC888EED219539322930562571E1A730443A3E_1_0_positions",
      "componentType": 5126,
      "count": 5027,
      "min": [
        86.7583999633789,
        -152.131103515625,
        -680.907470703125
      ],
      "max": [
        88.49500274658203,
        -150.39450073242188,
        -679.1710205078125
      ],
      "type": "VEC3",
      "bufferView": 0,
      "byteOffset": 288
    },
    {
      "name": "98AB7B134DDB347F6AF62C82F826C06F82B69A62___0DDC888EED219539322930562571E1A730443A3E_1_0_normals",
      "componentType": 5126,
      "count": 5027,
      "min": [
        -1,
        0,
        -1
      ],
      "max": [
        0.0004330684314481914,
        1,
        0.0004330684314481914
      ],
      "type": "VEC3",
      "bufferView": 1,
      "byteOffset": 288
    },
    {
      "name": "98AB7B134DDB347F6AF62C82F826C06F82B69A62___0DDC888EED219539322930562571E1A730443A3E_1_0_indices",
      "componentType": 5123,
      "count": 29625,
      "min": [
        0
      ],
      "max": [
        5026
      ],
      "type": "SCALAR",
      "bufferView": 3,
      "byteOffset": 84
    },
    {
      "name": "98AB7B134DDB347F6AF62C82F826C06F82B69A62___413E3E5097A664F41C6A16F63EB0B3868D87AB28_1_0_positions",
      "componentType": 5126,
      "count": 5027,
      "min": [
        86.7583999633789,
        -152.131103515625,
        -205.64419555664062
      ],
      "max": [
        88.49500274658203,
        -150.39450073242188,
        -203.9075927734375
      ],
      "type": "VEC3",
      "bufferView": 0,
      "byteOffset": 60612
    },
    {
      "name": "98AB7B134DDB347F6AF62C82F826C06F82B69A62___413E3E5097A664F41C6A16F63EB0B3868D87AB28_1_0_normals",
      "componentType": 5126,
      "count": 5027,
      "min": [
        -1,
        0,
        -0.0004330684314481914
      ],
      "max": [
        0.0004330684314481914,
        1,
        1
      ],
      "type": "VEC3",
      "bufferView": 1,
      "byteOffset": 60612
    },
    {
      "name": "98AB7B134DDB347F6AF62C82F826C06F82B69A62___413E3E5097A664F41C6A16F63EB0B3868D87AB28_1_0_indices",
      "componentType": 5123,
      "count": 29625,
      "min": [
        0
      ],
      "max": [
        5026
      ],
      "type": "SCALAR",
      "bufferView": 3,
      "byteOffset": 59336
    },
    {
      "name": "98AB7B134DDB347F6AF62C82F826C06F82B69A62___7F952327C2C13970C88509FD775D47E2605D5719_1_0_positions",
      "componentType": 5126,
      "count": 33,
      "min": [
        130.1652069091797,
        -296.569091796875,
        -727.20751953125
      ],
      "max": [
        131.11099243164062,
        -294.75640869140625,
        -727.20751953125
      ],
      "type": "VEC3",
      "bufferView": 0,
      "byteOffset": 120936
    },
    {
      "name": "98AB7B134DDB347F6AF62C82F826C06F82B69A62___7F952327C2C13970C88509FD775D47E2605D5719_1_0_normals",
      "componentType": 5126,
      "count": 33,
      "min": [
        0,
        0,
        -1
      ],
      "max": [
        0,
        0,
        -1
      ],
      "type": "VEC3",
      "bufferView": 1,
      "byteOffset": 120936
    },
    {
      "name": "98AB7B134DDB347F6AF62C82F826C06F82B69A62___7F952327C2C13970C88509FD775D47E2605D5719_1_0_indices",
      "componentType": 5123,
      "count": 93,
      "min": [
        0
      ],
      "max": [
        32
      ],
      "type": "SCALAR",
      "bufferView": 3,
      "byteOffset": 118588
    }
  ],
  "asset": {
    "generator": "obj2gltf",
    "version": "2.0"
  },
  "buffers": [
    {
      "name": "Thebox",
      "byteLength": 363816,
      "uri": "data:application/octet-stream;base64,"
    }
  ],
  "bufferViews": [
    {
      "name": "bufferView_0",
      "buffer": 0,
      "byteLength": 121332,
      "byteOffset": 0,
      "byteStride": 12,
      "target": 34962
    },
    {
      "name": "bufferView_1",
      "buffer": 0,
      "byteLength": 121332,
      "byteOffset": 121332,
      "byteStride": 12,
      "target": 34962
    },
    {
      "name": "bufferView_2",
      "buffer": 0,
      "byteLength": 160,
      "byteOffset": 242664,
      "byteStride": 8,
      "target": 34962
    },
    {
      "name": "bufferView_3",
      "buffer": 0,
      "byteLength": 118776,
      "byteOffset": 242824,
      "target": 34963
    },
    {
      "buffer": 0,
      "byteOffset": 361600,
      "byteLength": 2216
    }
  ],
  "images": [
    {
      "name": "huise",
      "mimeType": "image/png",
      "bufferView": 4
    }
  ],
  "materials": [
    {
      "name": "01___Default",
      "pbrMetallicRoughness": {
        "baseColorTexture": {
          "index": 0
        },
        "baseColorFactor": [
          1,
          1,
          1,
          1
        ],
        "metallicFactor": 0,
        "roughnessFactor": 0.99
      },
      "emissiveFactor": [
        0,
        0,
        0
      ],
      "alphaMode": "OPAQUE",
      "doubleSided": false
    },
    {
      "name": "wire_177028149",
      "pbrMetallicRoughness": {
        "baseColorFactor": [
          0.6941,
          0.1098,
          0.5843,
          1
        ],
        "metallicFactor": 0,
        "roughnessFactor": 0.968
      },
      "emissiveFactor": [
        0,
        0,
        0
      ],
      "alphaMode": "OPAQUE",
      "doubleSided": false
    },
    {
      "name": "wire_224198087",
      "pbrMetallicRoughness": {
        "baseColorFactor": [
          0.8784,
          0.7765,
          0.3412,
          1
        ],
        "metallicFactor": 0,
        "roughnessFactor": 0.968
      },
      "emissiveFactor": [
        0,
        0,
        0
      ],
      "alphaMode": "OPAQUE",
      "doubleSided": false
    },
    {
      "name": "wire_224086086",
      "pbrMetallicRoughness": {
        "baseColorFactor": [
          0.8784,
          0.3373,
          0.3373,
          1
        ],
        "metallicFactor": 0,
        "roughnessFactor": 0.968
      },
      "emissiveFactor": [
        0,
        0,
        0
      ],
      "alphaMode": "OPAQUE",
      "doubleSided": false
    },
    {
      "name": "wire_028089177",
      "pbrMetallicRoughness": {
        "baseColorFactor": [
          0.1098,
          0.349,
          0.6941,
          1
        ],
        "metallicFactor": 0,
        "roughnessFactor": 0.968
      },
      "emissiveFactor": [
        0,
        0,
        0
      ],
      "alphaMode": "OPAQUE",
      "doubleSided": false
    }
  ],
  "meshes": [
    {
      "name": "Box1705_1",
      "primitives": [
        {
          "attributes": {
            "POSITION": 0,
            "NORMAL": 1,
            "TEXCOORD_0": 2
          },
          "indices": 3,
          "material": 0,
          "mode": 4
        }
      ]
    },
    {
      "name": "98AB7B134DDB347F6AF62C82F826C06F82B69A62___942B6212A8479E12AF1D9C710B7BFF818E1BB209_1",
      "primitives": [
        {
          "attributes": {
            "POSITION": 4,
            "NORMAL": 5
          },
          "indices": 6,
          "material": 1,
          "mode": 4
        }
      ]
    },
    {
      "name": "98AB7B134DDB347F6AF62C82F826C06F82B69A62___0DDC888EED219539322930562571E1A730443A3E_1",
      "primitives": [
        {
          "attributes": {
            "POSITION": 7,
            "NORMAL": 8
          },
          "indices": 9,
          "material": 2,
          "mode": 4
        }
      ]
    },
    {
      "name": "98AB7B134DDB347F6AF62C82F826C06F82B69A62___413E3E5097A664F41C6A16F63EB0B3868D87AB28_1",
      "primitives": [
        {
          "attributes": {
            "POSITION": 10,
            "NORMAL": 11
          },
          "indices": 12,
          "material": 3,
          "mode": 4
        }
      ]
    },
    {
      "name": "98AB7B134DDB347F6AF62C82F826C06F82B69A62___7F952327C2C13970C88509FD775D47E2605D5719_1",
      "primitives": [
        {
          "attributes": {
            "POSITION": 13,
            "NORMAL": 14
          },
          "indices": 15,
          "material": 4,
          "mode": 4
        }
      ]
    }
  ],
  "nodes": [
    {
      "name": "Box1705",
      "mesh": 0
    },
    {
      "name": "98AB7B134DDB347F6AF62C82F826C06F82B69A62___942B6212A8479E12AF1D9C710B7BFF818E1BB209",
      "mesh": 1
    },
    {
      "name": "98AB7B134DDB347F6AF62C82F826C06F82B69A62___0DDC888EED219539322930562571E1A730443A3E",
      "mesh": 2
    },
    {
      "name": "98AB7B134DDB347F6AF62C82F826C06F82B69A62___413E3E5097A664F41C6A16F63EB0B3868D87AB28",
      "mesh": 3
    },
    {
      "name": "98AB7B134DDB347F6AF62C82F826C06F82B69A62___7F952327C2C13970C88509FD775D47E2605D5719",
      "mesh": 4
    }
  ],
  "samplers": [
    {
      "magFilter": 9729,
      "minFilter": 9986,
      "wrapS": 10497,
      "wrapT": 10497
    }
  ],
  "scene": 0,
  "scenes": [
    {
      "nodes": [
        0,
        1,
        2,
        3,
        4
      ]
    }
  ],
  "textures": [
    {
      "name": "huise",
      "sampler": 0,
      "source": 0
    }
  ]
}
