{
  "accessors": [
    {
      "name": "Box1706_1_0_positions",
      "componentType": 5126,
      "count": 20,
      "min": [
        4180.62646484375,
        335.0426025390625,
        -2155.11474609375
      ],
      "max": [
        4561.44677734375,
        715.8630981445312,
        -1520.413818359375
      ],
      "type": "VEC3",
      "bufferView": 0,
      "byteOffset": 0
    },
    {
      "name": "Box1706_1_0_normals",
      "componentType": 5126,
      "count": 20,
      "min": [
        -0.5773502588272095,
        -0.5773502588272095,
        -0.5773502588272095
      ],
      "max": [
        0.5773502588272095,
        0.5773502588272095,
        0.5773502588272095
      ],
      "type": "VEC3",
      "bufferView": 1,
      "byteOffset": 0
    },
    {
      "name": "Box1706_1_0_texcoords",
      "componentType": 5126,
      "count": 20,
      "min": [
        0,
        0
      ],
      "max": [
        1,
        1
      ],
      "type": "VEC2",
      "bufferView": 2,
      "byteOffset": 0
    },
    {
      "name": "Box1706_1_0_indices",
      "componentType": 5123,
      "count": 36,
      "min": [
        0
      ],
      "max": [
        19
      ],
      "type": "SCALAR",
      "bufferView": 3,
      "byteOffset": 0
    },
    {
      "name": "Box1709_1_0_positions",
      "componentType": 5126,
      "count": 20,
      "min": [
        4180.62646484375,
        335.0426025390625,
        -1460.126708984375
      ],
      "max": [
        4561.44677734375,
        715.8630981445312,
        -825.42578125
      ],
      "type": "VEC3",
      "bufferView": 0,
      "byteOffset": 240
    },
    {
      "name": "Box1709_1_0_normals",
      "componentType": 5126,
      "count": 20,
      "min": [
        -0.5773502588272095,
        -0.5773502588272095,
        -0.5773502588272095
      ],
      "max": [
        0.5773502588272095,
        0.5773502588272095,
        0.5773502588272095
      ],
      "type": "VEC3",
      "bufferView": 1,
      "byteOffset": 240
    },
    {
      "name": "Box1709_1_0_texcoords",
      "componentType": 5126,
      "count": 20,
      "min": [
        0,
        0
      ],
      "max": [
        1,
        1
      ],
      "type": "VEC2",
      "bufferView": 2,
      "byteOffset": 160
    },
    {
      "name": "Box1709_1_0_indices",
      "componentType": 5123,
      "count": 36,
      "min": [
        0
      ],
      "max": [
        19
      ],
      "type": "SCALAR",
      "bufferView": 3,
      "byteOffset": 72
    },
    {
      "name": "Box1710_1_0_positions",
      "componentType": 5126,
      "count": 20,
      "min": [
        4643.84765625,
        335.0426025390625,
        -2155.11474609375
      ],
      "max": [
        5024.66796875,
        715.8630981445312,
        -1520.413818359375
      ],
      "type": "VEC3",
      "bufferView": 0,
      "byteOffset": 480
    },
    {
      "name": "Box1710_1_0_normals",
      "componentType": 5126,
      "count": 20,
      "min": [
        -0.5773502588272095,
        -0.5773502588272095,
        -0.5773502588272095
      ],
      "max": [
        0.5773502588272095,
        0.5773502588272095,
        0.5773502588272095
      ],
      "type": "VEC3",
      "bufferView": 1,
      "byteOffset": 480
    },
    {
      "name": "Box1710_1_0_texcoords",
      "componentType": 5126,
      "count": 20,
      "min": [
        0,
        0
      ],
      "max": [
        1,
        1
      ],
      "type": "VEC2",
      "bufferView": 2,
      "byteOffset": 320
    },
    {
      "name": "Box1710_1_0_indices",
      "componentType": 5123,
      "count": 36,
      "min": [
        0
      ],
      "max": [
        19
      ],
      "type": "SCALAR",
      "bufferView": 3,
      "byteOffset": 144
    },
    {
      "name": "Box1711_1_0_positions",
      "componentType": 5126,
      "count": 20,
      "min": [
        4643.84765625,
        335.0426025390625,
        -1460.126708984375
      ],
      "max": [
        5024.66796875,
        715.8630981445312,
        -825.42578125
      ],
      "type": "VEC3",
      "bufferView": 0,
      "byteOffset": 720
    },
    {
      "name": "Box1711_1_0_normals",
      "componentType": 5126,
      "count": 20,
      "min": [
        -0.5773502588272095,
        -0.5773502588272095,
        -0.5773502588272095
      ],
      "max": [
        0.5773502588272095,
        0.5773502588272095,
        0.5773502588272095
      ],
      "type": "VEC3",
      "bufferView": 1,
      "byteOffset": 720
    },
    {
      "name": "Box1711_1_0_texcoords",
      "componentType": 5126,
      "count": 20,
      "min": [
        0,
        0
      ],
      "max": [
        1,
        1
      ],
      "type": "VEC2",
      "bufferView": 2,
      "byteOffset": 480
    },
    {
      "name": "Box1711_1_0_indices",
      "componentType": 5123,
      "count": 36,
      "min": [
        0
      ],
      "max": [
        19
      ],
      "type": "SCALAR",
      "bufferView": 3,
      "byteOffset": 216
    },
    {
      "name": "Obj3d66_517576_1_12_1_0_positions",
      "componentType": 5126,
      "count": 8510,
      "min": [
        4093.258544921875,
        208.01950073242188,
        -2316.263916015625
      ],
      "max": [
        5148.05078125,
        1414.328857421875,
        -562.7811889648438
      ],
      "type": "VEC3",
      "bufferView": 0,
      "byteOffset": 960
    },
    {
      "name": "Obj3d66_517576_1_12_1_0_normals",
      "componentType": 5126,
      "count": 8510,
      "min": [
        -1,
        -1,
        -1
      ],
      "max": [
        1,
        1,
        1
      ],
      "type": "VEC3",
      "bufferView": 1,
      "byteOffset": 960
    },
    {
      "name": "Obj3d66_517576_1_12_1_0_texcoords",
      "componentType": 5126,
      "count": 8510,
      "min": [
        -15.748000144958496,
        -27.736900329589844
      ],
      "max": [
        15.748000144958496,
        2.206899881362915
      ],
      "type": "VEC2",
      "bufferView": 2,
      "byteOffset": 640
    },
    {
      "name": "Obj3d66_517576_1_12_1_0_indices",
      "componentType": 5123,
      "count": 44412,
      "min": [
        0
      ],
      "max": [
        8509
      ],
      "type": "SCALAR",
      "bufferView": 3,
      "byteOffset": 288
    },
    {
      "name": "Obj3d66_517576_2_608_1_0_positions",
      "componentType": 5126,
      "count": 10340,
      "min": [
        4219.033203125,
        59.42290115356445,
        -2263.21044921875
      ],
      "max": [
        5022.044921875,
        243.18580627441406,
        -787.3267822265625
      ],
      "type": "VEC3",
      "bufferView": 0,
      "byteOffset": 103080
    },
    {
      "name": "Obj3d66_517576_2_608_1_0_normals",
      "componentType": 5126,
      "count": 10340,
      "min": [
        -0.9999975562095642,
        -1,
        -1
      ],
      "max": [
        0.999997615814209,
        1,
        1
      ],
      "type": "VEC3",
      "bufferView": 1,
      "byteOffset": 103080
    },
    {
      "name": "Obj3d66_517576_2_608_1_0_texcoords",
      "componentType": 5126,
      "count": 10340,
      "min": [
        0.002400000113993883,
        0.0013000000035390258
      ],
      "max": [
        1.0312999486923218,
        0.9987000226974487
      ],
      "type": "VEC2",
      "bufferView": 2,
      "byteOffset": 68720
    },
    {
      "name": "Obj3d66_517576_2_608_1_0_indices",
      "componentType": 5123,
      "count": 61440,
      "min": [
        0
      ],
      "max": [
        10339
      ],
      "type": "SCALAR",
      "bufferView": 3,
      "byteOffset": 89112
    },
    {
      "name": "Obj3d66_517576_3_548_1_0_positions",
      "componentType": 5126,
      "count": 50812,
      "min": [
        4145.998046875,
        86.42230224609375,
        -2263.524169921875
      ],
      "max": [
        5095.3115234375,
        314.8174133300781,
        -786.8148803710938
      ],
      "type": "VEC3",
      "bufferView": 0,
      "byteOffset": 227160
    },
    {
      "name": "Obj3d66_517576_3_548_1_0_normals",
      "componentType": 5126,
      "count": 50812,
      "min": [
        -1,
        -1,
        -1
      ],
      "max": [
        1,
        1,
        1
      ],
      "type": "VEC3",
      "bufferView": 1,
      "byteOffset": 227160
    },
    {
      "name": "Obj3d66_517576_3_548_1_0_texcoords",
      "componentType": 5126,
      "count": 50812,
      "min": [
        -0.11760000139474869,
        -0.010300000198185444
      ],
      "max": [
        1.7529000043869019,
        1.1033999919891357
      ],
      "type": "VEC2",
      "bufferView": 2,
      "byteOffset": 151440
    },
    {
      "name": "Obj3d66_517576_3_548_1_0_indices",
      "componentType": 5123,
      "count": 290112,
      "min": [
        0
      ],
      "max": [
        50811
      ],
      "type": "SCALAR",
      "bufferView": 3,
      "byteOffset": 211992
    }
  ],
  "asset": {
    "generator": "obj2gltf",
    "version": "2.0"
  },
  "buffers": [
    {
      "name": "cart",
      "byteLength": 3032512,
      "uri": "data:application/octet-stream;base64,"
    }
  ],
  "bufferViews": [
    {
      "name": "bufferView_0",
      "buffer": 0,
      "byteLength": 836904,
      "byteOffset": 0,
      "byteStride": 12,
      "target": 34962
    },
    {
      "name": "bufferView_1",
      "buffer": 0,
      "byteLength": 836904,
      "byteOffset": 836904,
      "byteStride": 12,
      "target": 34962
    },
    {
      "name": "bufferView_2",
      "buffer": 0,
      "byteLength": 557936,
      "byteOffset": 1673808,
      "byteStride": 8,
      "target": 34962
    },
    {
      "name": "bufferView_3",
      "buffer": 0,
      "byteLength": 792216,
      "byteOffset": 2231744,
      "target": 34963
    },
    {
      "buffer": 0,
      "byteOffset": 3023960,
      "byteLength": 2216
    },
    {
      "buffer": 0,
      "byteOffset": 3026176,
      "byteLength": 2112
    },
    {
      "buffer": 0,
      "byteOffset": 3028288,
      "byteLength": 2112
    },
    {
      "buffer": 0,
      "byteOffset": 3030400,
      "byteLength": 2112
    }
  ],
  "images": [
    {
      "name": "huise",
      "mimeType": "image/png",
      "bufferView": 4
    },
    {
      "name": "blue",
      "mimeType": "image/png",
      "bufferView": 5
    },
    {
      "name": "black",
      "mimeType": "image/png",
      "bufferView": 6
    },
    {
      "name": "gray",
      "mimeType": "image/png",
      "bufferView": 7
    }
  ],
  "materials": [
    {
      "name": "03___Default",
      "pbrMetallicRoughness": {
        "baseColorTexture": {
          "index": 0
        },
        "baseColorFactor": [
          1,
          1,
          1,
          1
        ],
        "metallicFactor": 0,
        "roughnessFactor": 0.99
      },
      "emissiveFactor": [
        0,
        0,
        0
      ],
      "alphaMode": "OPAQUE",
      "doubleSided": false
    },
    {
      "name": "04___Default",
      "pbrMetallicRoughness": {
        "baseColorTexture": {
          "index": 1
        },
        "baseColorFactor": [
          1,
          1,
          1,
          1
        ],
        "metallicFactor": 0,
        "roughnessFactor": 0.99
      },
      "emissiveFactor": [
        0,
        0,
        0
      ],
      "alphaMode": "OPAQUE",
      "doubleSided": false
    },
    {
      "name": "07___Default",
      "pbrMetallicRoughness": {
        "baseColorTexture": {
          "index": 2
        },
        "baseColorFactor": [
          1,
          1,
          1,
          1
        ],
        "metallicFactor": 0,
        "roughnessFactor": 0.99
      },
      "emissiveFactor": [
        0,
        0,
        0
      ],
      "alphaMode": "OPAQUE",
      "doubleSided": false
    },
    {
      "name": "05___Default",
      "pbrMetallicRoughness": {
        "baseColorTexture": {
          "index": 3
        },
        "baseColorFactor": [
          1,
          1,
          1,
          1
        ],
        "metallicFactor": 0,
        "roughnessFactor": 0.99
      },
      "emissiveFactor": [
        0,
        0,
        0
      ],
      "alphaMode": "OPAQUE",
      "doubleSided": false
    }
  ],
  "meshes": [
    {
      "name": "Box1706_1",
      "primitives": [
        {
          "attributes": {
            "POSITION": 0,
            "NORMAL": 1,
            "TEXCOORD_0": 2
          },
          "indices": 3,
          "material": 0,
          "mode": 4
        }
      ]
    },
    {
      "name": "Box1709_1",
      "primitives": [
        {
          "attributes": {
            "POSITION": 4,
            "NORMAL": 5,
            "TEXCOORD_0": 6
          },
          "indices": 7,
          "material": 0,
          "mode": 4
        }
      ]
    },
    {
      "name": "Box1710_1",
      "primitives": [
        {
          "attributes": {
            "POSITION": 8,
            "NORMAL": 9,
            "TEXCOORD_0": 10
          },
          "indices": 11,
          "material": 0,
          "mode": 4
        }
      ]
    },
    {
      "name": "Box1711_1",
      "primitives": [
        {
          "attributes": {
            "POSITION": 12,
            "NORMAL": 13,
            "TEXCOORD_0": 14
          },
          "indices": 15,
          "material": 0,
          "mode": 4
        }
      ]
    },
    {
      "name": "Obj3d66_517576_1_12_1",
      "primitives": [
        {
          "attributes": {
            "POSITION": 16,
            "NORMAL": 17,
            "TEXCOORD_0": 18
          },
          "indices": 19,
          "material": 1,
          "mode": 4
        }
      ]
    },
    {
      "name": "Obj3d66_517576_2_608_1",
      "primitives": [
        {
          "attributes": {
            "POSITION": 20,
            "NORMAL": 21,
            "TEXCOORD_0": 22
          },
          "indices": 23,
          "material": 2,
          "mode": 4
        }
      ]
    },
    {
      "name": "Obj3d66_517576_3_548_1",
      "primitives": [
        {
          "attributes": {
            "POSITION": 24,
            "NORMAL": 25,
            "TEXCOORD_0": 26
          },
          "indices": 27,
          "material": 3,
          "mode": 4
        }
      ]
    }
  ],
  "nodes": [
    {
      "name": "Box1706",
      "mesh": 0
    },
    {
      "name": "Box1709",
      "mesh": 1
    },
    {
      "name": "Box1710",
      "mesh": 2
    },
    {
      "name": "Box1711",
      "mesh": 3
    },
    {
      "name": "Obj3d66_517576_1_12",
      "mesh": 4
    },
    {
      "name": "Obj3d66_517576_2_608",
      "mesh": 5
    },
    {
      "name": "Obj3d66_517576_3_548",
      "mesh": 6
    }
  ],
  "samplers": [
    {
      "magFilter": 9729,
      "minFilter": 9986,
      "wrapS": 10497,
      "wrapT": 10497
    }
  ],
  "scene": 0,
  "scenes": [
    {
      "nodes": [
        0,
        1,
        2,
        3,
        4,
        5,
        6
      ]
    }
  ],
  "textures": [
    {
      "name": "huise",
      "sampler": 0,
      "source": 0
    },
    {
      "name": "blue",
      "sampler": 0,
      "source": 1
    },
    {
      "name": "black",
      "sampler": 0,
      "source": 2
    },
    {
      "name": "gray",
      "sampler": 0,
      "source": 3
    }
  ]
}
