{
  "accessors": [
    {
      "name": "Teapot001_1_0_positions",
      "componentType": 5126,
      "count": 628,
      "min": [
        -73.78620147705078,
        0,
        -53.34389877319336
      ],
      "max": [
        47.43989944458008,
        59.40489959716797,
        22.090900421142578
      ],
      "type": "VEC3",
      "bufferView": 0,
      "byteOffset": 0
    },
    {
      "name": "Teapot001_1_0_normals",
      "componentType": 5126,
      "count": 628,
      "min": [
        -0.9978063702583313,
        -1,
        -0.9998546242713928
      ],
      "max": [
        0.9993661642074585,
        1,
        0.9998546242713928
      ],
      "type": "VEC3",
      "bufferView": 1,
      "byteOffset": 0
    },
    {
      "name": "Teapot001_1_0_texcoords",
      "componentType": 5126,
      "count": 628,
      "min": [
        0,
        -1
      ],
      "max": [
        2,
        1
      ],
      "type": "VEC2",
      "bufferView": 2,
      "byteOffset": 0
    },
    {
      "name": "Teapot001_1_0_indices",
      "componentType": 5123,
      "count": 2976,
      "min": [
        0
      ],
      "max": [
        627
      ],
      "type": "SCALAR",
      "bufferView": 3,
      "byteOffset": 0
    },
    {
      "name": "Teapot002_1_0_positions",
      "componentType": 5126,
      "count": 628,
      "min": [
        99.50260162353516,
        0,
        -53.34389877319336
      ],
      "max": [
        220.7288055419922,
        59.40489959716797,
        22.090900421142578
      ],
      "type": "VEC3",
      "bufferView": 0,
      "byteOffset": 7536
    },
    {
      "name": "Teapot002_1_0_normals",
      "componentType": 5126,
      "count": 628,
      "min": [
        -0.9978063702583313,
        -1,
        -0.9998546242713928
      ],
      "max": [
        0.9993661642074585,
        1,
        0.9998546242713928
      ],
      "type": "VEC3",
      "bufferView": 1,
      "byteOffset": 7536
    },
    {
      "name": "Teapot002_1_0_texcoords",
      "componentType": 5126,
      "count": 628,
      "min": [
        0,
        -1
      ],
      "max": [
        2,
        1
      ],
      "type": "VEC2",
      "bufferView": 2,
      "byteOffset": 5024
    },
    {
      "name": "Teapot002_1_0_indices",
      "componentType": 5123,
      "count": 2976,
      "min": [
        0
      ],
      "max": [
        627
      ],
      "type": "SCALAR",
      "bufferView": 3,
      "byteOffset": 5952
    }
  ],
  "asset": {
    "generator": "obj2gltf",
    "version": "2.0"
  },
  "buffers": [
    {
      "name": "ceshi",
      "byteLength": 58684,
      "uri": "data:application/octet-stream;base64,"
    }
  ],
  "bufferViews": [
    {
      "name": "bufferView_0",
      "buffer": 0,
      "byteLength": 15072,
      "byteOffset": 0,
      "byteStride": 12,
      "target": 34962
    },
    {
      "name": "bufferView_1",
      "buffer": 0,
      "byteLength": 15072,
      "byteOffset": 15072,
      "byteStride": 12,
      "target": 34962
    },
    {
      "name": "bufferView_2",
      "buffer": 0,
      "byteLength": 10048,
      "byteOffset": 30144,
      "byteStride": 8,
      "target": 34962
    },
    {
      "name": "bufferView_3",
      "buffer": 0,
      "byteLength": 11904,
      "byteOffset": 40192,
      "target": 34963
    },
    {
      "buffer": 0,
      "byteOffset": 52096,
      "byteLength": 3293
    },
    {
      "buffer": 0,
      "byteOffset": 55389,
      "byteLength": 3293
    }
  ],
  "images": [
    {
      "name": "red",
      "mimeType": "image/png",
      "bufferView": 4
    },
    {
      "name": "chengse",
      "mimeType": "image/png",
      "bufferView": 5
    }
  ],
  "materials": [
    {
      "name": "01___Default",
      "pbrMetallicRoughness": {
        "baseColorTexture": {
          "index": 0
        },
        "baseColorFactor": [
          1,
          1,
          1,
          1
        ],
        "metallicFactor": 0,
        "roughnessFactor": 0.99
      },
      "emissiveFactor": [
        0,
        0,
        0
      ],
      "alphaMode": "OPAQUE",
      "doubleSided": false
    },
    {
      "name": "02___Default",
      "pbrMetallicRoughness": {
        "baseColorTexture": {
          "index": 1
        },
        "baseColorFactor": [
          1,
          1,
          1,
          1
        ],
        "metallicFactor": 0,
        "roughnessFactor": 0.99
      },
      "emissiveFactor": [
        0,
        0,
        0
      ],
      "alphaMode": "OPAQUE",
      "doubleSided": false
    }
  ],
  "meshes": [
    {
      "name": "Teapot001_1",
      "primitives": [
        {
          "attributes": {
            "POSITION": 0,
            "NORMAL": 1,
            "TEXCOORD_0": 2
          },
          "indices": 3,
          "material": 0,
          "mode": 4
        }
      ]
    },
    {
      "name": "Teapot002_1",
      "primitives": [
        {
          "attributes": {
            "POSITION": 4,
            "NORMAL": 5,
            "TEXCOORD_0": 6
          },
          "indices": 7,
          "material": 1,
          "mode": 4
        }
      ]
    }
  ],
  "nodes": [
    {
      "name": "Teapot001",
      "mesh": 0
    },
    {
      "name": "Teapot002",
      "mesh": 1
    }
  ],
  "samplers": [
    {
      "magFilter": 9729,
      "minFilter": 9986,
      "wrapS": 10497,
      "wrapT": 10497
    }
  ],
  "scene": 0,
  "scenes": [
    {
      "nodes": [
        0,
        1
      ]
    }
  ],
  "textures": [
    {
      "name": "red",
      "sampler": 0,
      "source": 0
    },
    {
      "name": "chengse",
      "sampler": 0,
      "source": 1
    }
  ]
}
