{
  "accessors": [
    {
      "name": "Obj3d66_664248_753_811_1_0_positions",
      "componentType": 5126,
      "count": 1051,
      "min": [
        -312.2090148925781,
        -51.9556999206543,
        -176.5229034423828
      ],
      "max": [
        411.2413024902344,
        51.9556999206543,
        546.3101806640625
      ],
      "type": "VEC3",
      "bufferView": 0,
      "byteOffset": 0
    },
    {
      "name": "Obj3d66_664248_753_811_1_0_normals",
      "componentType": 5126,
      "count": 1051,
      "min": [
        -0.9870849847793579,
        -0.9870849847793579,
        -0.9820416569709778
      ],
      "max": [
        0.9870849847793579,
        0.9870849847793579,
        0.9820416569709778
      ],
      "type": "VEC3",
      "bufferView": 1,
      "byteOffset": 0
    },
    {
      "name": "Obj3d66_664248_753_811_1_0_texcoords",
      "componentType": 5126,
      "count": 1051,
      "min": [
        0.0026000000070780516,
        0.003100000089034438
      ],
      "max": [
        0.909600019454956,
        0.9970999956130981
      ],
      "type": "VEC2",
      "bufferView": 2,
      "byteOffset": 0
    },
    {
      "name": "Obj3d66_664248_753_811_1_0_indices",
      "componentType": 5123,
      "count": 3276,
      "min": [
        0
      ],
      "max": [
        1050
      ],
      "type": "SCALAR",
      "bufferView": 3,
      "byteOffset": 0
    }
  ],
  "asset": {
    "generator": "obj2gltf",
    "version": "2.0"
  },
  "buffers": [
    {
      "name": "platform1",
      "byteLength": 40184,
      "uri": "data:application/octet-stream;base64,"
    }
  ],
  "bufferViews": [
    {
      "name": "bufferView_0",
      "buffer": 0,
      "byteLength": 12612,
      "byteOffset": 0,
      "byteStride": 12,
      "target": 34962
    },
    {
      "name": "bufferView_1",
      "buffer": 0,
      "byteLength": 12612,
      "byteOffset": 12612,
      "byteStride": 12,
      "target": 34962
    },
    {
      "name": "bufferView_2",
      "buffer": 0,
      "byteLength": 8408,
      "byteOffset": 25224,
      "byteStride": 8,
      "target": 34962
    },
    {
      "name": "bufferView_3",
      "buffer": 0,
      "byteLength": 6552,
      "byteOffset": 33632,
      "target": 34963
    }
  ],
  "materials": [
    {
      "name": "wire_074074074",
      "pbrMetallicRoughness": {
        "baseColorFactor": [
          0.2902,
          0.2902,
          0.2902,
          1
        ],
        "metallicFactor": 0,
        "roughnessFactor": 0.968
      },
      "emissiveFactor": [
        0,
        0,
        0
      ],
      "alphaMode": "OPAQUE",
      "doubleSided": false
    }
  ],
  "meshes": [
    {
      "name": "Obj3d66_664248_753_811_1",
      "primitives": [
        {
          "attributes": {
            "POSITION": 0,
            "NORMAL": 1,
            "TEXCOORD_0": 2
          },
          "indices": 3,
          "material": 0,
          "mode": 4
        }
      ]
    }
  ],
  "nodes": [
    {
      "name": "Obj3d66_664248_753_811",
      "mesh": 0
    }
  ],
  "scene": 0,
  "scenes": [
    {
      "nodes": [
        0
      ]
    }
  ]
}
