{
  "accessors": [
    {
      "name": "Obj3d66_664248_753_806_1_0_positions",
      "componentType": 5126,
      "count": 1051,
      "min": [
        2772.85009765625,
        1424.4622802734375,
        1975.389404296875
      ],
      "max": [
        3496.30029296875,
        1528.3736572265625,
        2698.22265625
      ],
      "type": "VEC3",
      "bufferView": 0,
      "byteOffset": 0
    },
    {
      "name": "Obj3d66_664248_753_806_1_0_normals",
      "componentType": 5126,
      "count": 1051,
      "min": [
        -0.9870849847793579,
        -0.9870849847793579,
        -0.9820416569709778
      ],
      "max": [
        0.9870849847793579,
        0.9870849847793579,
        0.9820416569709778
      ],
      "type": "VEC3",
      "bufferView": 1,
      "byteOffset": 0
    },
    {
      "name": "Obj3d66_664248_753_806_1_0_texcoords",
      "componentType": 5126,
      "count": 1051,
      "min": [
        0.0026000000070780516,
        0.003100000089034438
      ],
      "max": [
        0.909600019454956,
        0.9970999956130981
      ],
      "type": "VEC2",
      "bufferView": 2,
      "byteOffset": 0
    },
    {
      "name": "Obj3d66_664248_753_806_1_0_indices",
      "componentType": 5123,
      "count": 3276,
      "min": [
        0
      ],
      "max": [
        1050
      ],
      "type": "SCALAR",
      "bufferView": 3,
      "byteOffset": 0
    }
  ],
  "asset": {
    "generator": "obj2gltf",
    "version": "2.0"
  },
  "buffers": [
    {
      "name": "platform",
      "byteLength": 42400,
      "uri": "data:application/octet-stream;base64,"
    }
  ],
  "bufferViews": [
    {
      "name": "bufferView_0",
      "buffer": 0,
      "byteLength": 12612,
      "byteOffset": 0,
      "byteStride": 12,
      "target": 34962
    },
    {
      "name": "bufferView_1",
      "buffer": 0,
      "byteLength": 12612,
      "byteOffset": 12612,
      "byteStride": 12,
      "target": 34962
    },
    {
      "name": "bufferView_2",
      "buffer": 0,
      "byteLength": 8408,
      "byteOffset": 25224,
      "byteStride": 8,
      "target": 34962
    },
    {
      "name": "bufferView_3",
      "buffer": 0,
      "byteLength": 6552,
      "byteOffset": 33632,
      "target": 34963
    },
    {
      "buffer": 0,
      "byteOffset": 40184,
      "byteLength": 2216
    }
  ],
  "images": [
    {
      "name": "huise",
      "mimeType": "image/png",
      "bufferView": 4
    }
  ],
  "materials": [
    {
      "name": "02___Default",
      "pbrMetallicRoughness": {
        "baseColorTexture": {
          "index": 0
        },
        "baseColorFactor": [
          1,
          1,
          1,
          1
        ],
        "metallicFactor": 0,
        "roughnessFactor": 0.99
      },
      "emissiveFactor": [
        0,
        0,
        0
      ],
      "alphaMode": "OPAQUE",
      "doubleSided": false
    }
  ],
  "meshes": [
    {
      "name": "Obj3d66_664248_753_806_1",
      "primitives": [
        {
          "attributes": {
            "POSITION": 0,
            "NORMAL": 1,
            "TEXCOORD_0": 2
          },
          "indices": 3,
          "material": 0,
          "mode": 4
        }
      ]
    }
  ],
  "nodes": [
    {
      "name": "Obj3d66_664248_753_806",
      "mesh": 0
    }
  ],
  "samplers": [
    {
      "magFilter": 9729,
      "minFilter": 9986,
      "wrapS": 10497,
      "wrapT": 10497
    }
  ],
  "scene": 0,
  "scenes": [
    {
      "nodes": [
        0
      ]
    }
  ],
  "textures": [
    {
      "name": "huise",
      "sampler": 0,
      "source": 0
    }
  ]
}
